# AST/ASF file generated using VICON BodyLanguage
# -----------------------------------------------
:version 1.10
:name VICON
:units
  mass 1.0
  length 0.45
  angle deg
:documentation
   .ast/.asf automatically generated from VICON data using
   VICON BodyBuilder and BodyLanguage model FoxedUp or BRILLIANT.MOD
:root
   order TX TY TZ RX RY RZ
   axis XYZ
   position 0 0 0  
   orientation 0 0 0 
:bonedata
  begin
     id 1 
     name lhipjoint
     direction 0.645893 -0.654526 0.392961 
     length 2.38111 
     axis 0 0 0  XYZ
  end
  begin
     id 2 
     name lfemur
     direction 0.34202 -0.939693 0  
     length 6.6822  
     axis 0 0 20  XYZ
    dof rx ry rz
    limits (-160.0 20.0)
           (-70.0 70.0)
           (-60.0 70.0)
  end
  begin
     id 3 
     name ltibia
     direction 0.34202 -0.939693 0   
     length 6.93904   
     axis 0 0 20   XYZ
    dof rx
    limits (-10.0 170.0)
  end
  begin
     id 4 
     name lfoot
     direction 0.0694967 -0.190941 0.979138   
     length 2.13616   
     axis -90 7.62852e-016 20   XYZ
    dof rx rz
    limits (-45.0 90.0)
           (-70.0 20.0)
  end
  begin
     id 5 
     name ltoes
     direction 1.535e-011 -4.2202e-011 1   
     length 1.07536   
     axis -90 7.62852e-016 20   XYZ
    dof rx
    limits (-90.0 20.0)
  end
  begin
     id 6 
     name rhipjoint
     direction -0.700219 -0.612087 0.367481   
     length 2.54621  
     axis 0 0 0  XYZ 
  end
  begin
     id 7 
     name rfemur
     direction -0.34202 -0.939693 0   
     length 6.55353   
     axis 0 0 -20   XYZ
    dof rx ry rz
    limits (-160.0 20.0)
           (-70.0 70.0)
           (-70.0 60.0)
  end
  begin
     id 8 
     name rtibia
     direction -0.34202 -0.939693 0   
     length 6.8736   
     axis 0 0 -20   XYZ
    dof rx
    limits (-10.0 170.0)
 end
 begin
     id 9 
     name rfoot
     direction -0.0679995 -0.186827 0.980037   
     length 2.1218  
     axis -90 -7.62852e-016 -20   XYZ
    dof rx rz
    limits (-45.0 90.0)
           (-20.0 70.0)
  end
  begin
     id 10 
     name rtoes
     direction -1.53589e-011 -4.21772e-011 1   
     length 1.06864   
     axis -90 -7.62852e-016 -20   XYZ
    dof rx
    limits (-90.0 20.0)
  end
  begin
     id 11 
     name lowerback
     direction -0.0416607 0.996347 -0.0745409   
     length 2.12205   
     axis 0 0 0   XYZ
    dof rx ry rz
    limits (-20.0 45.0)
           (-30.0 30.0)
           (-30.0 30.0)
  end
  begin
     id 12 
     name upperback
     direction -0.000153993 0.999276 -0.0380568   
     length 2.12759   
     axis 0 0 0   XYZ
    dof rx ry rz
    limits (-20.0 45.0)
           (-30.0 30.0)
           (-30.0 30.0)
  end
  begin
     id 13 
     name thorax
     direction 0.0187671 0.999821 -0.00241421   
     length 2.13704   
     axis 0 0 0   XYZ
    dof rx ry rz
    limits (-20.0 45.0)
           (-30.0 30.0)
           (-30.0 30.0)
  end
  begin
     id 14 
     name lowerneck
     direction 0.0268157 0.964865 0.261374   
     length 1.65253   
     axis 0 0 0   XYZ
    dof rx ry rz
    limits (-20.0 45.0)
           (-30.0 30.0)
           (-30.0 30.0)
  end
  begin
     id 15 
     name upperneck
     direction 0.00263774 0.939908 -0.341418   
     length 1.72375   
     axis 0 0 0   XYZ
    dof rx ry rz
    limits (-20.0 45.0)
           (-30.0 30.0)
           (-30.0 30.0)
  end
  begin
     id 16
     name head
     direction -0.00526001 0.989001 -0.147818  
     length 1.74878  
     axis 0 0 0   XYZ
    dof rx ry rz
    limits (-20.0 45.0)
           (-30.0 30.0)
           (-30.0 30.0)
  end
  begin
     id 17 
     name lclavicle
     direction 0.881214 0.461162 -0.103884  
     length 3.25108  
     axis 0 0 0   XYZ
    dof ry rz
    limits (-20.0 10.0)
           (0.0 20.0)
  end
  begin
     id 18 
     name lhumerus
     direction 1 -4.4899e-011 3.38092e-027   
     length 4.87408   
     axis 180 -30 -90   XYZ
    dof rx ry rz
    limits (-60.0 90.0)
           (-90.0 90.0)
           (-90.0 90.0)
  end
  begin
     id 19
     name lradius
     direction 1 -4.48931e-011 9.96288e-027   
     length 2.76729   
     axis 180 -30 -90   XYZ
    dof rx
    limits (-10.0 170.0)
  end
  begin
     id 20
     name lwrist
     direction 1 -4.4896e-011 1.50617e-026   
     length 1.38364   
     axis -9.31234e-015 90 90   XYZ
    dof ry
    limits (-180.0 0.0)
 end
  begin
     id 21 
     name lhand
     direction 1 -4.49038e-011 3.01286e-026   
     length 0.98922   
     axis -1.92217e-014 90 90   XYZ
    dof rx rz
    limits (-90.0 90.0)
           (-45.0 45.0)
  end
  begin
     id 22 
     name lfingers
     direction 1 -4.49051e-011 6.02588e-026   
     length 0.797535   
     axis -3.84436e-014 90 90   XYZ
    dof rx
    limits (0.0 90.0)
  end
  begin
     id 23
     name lthumb
     direction 0.707107 -6.34901e-011 0.707107   
     length 1.14511   
     axis -90 45 2.19363e-014   XYZ
    dof rx rz
    limits (-45.0 45.0)
           (-45.0 45.0)
  end
  begin
     id 24 
     name rclavicle
     direction -0.893894 0.441652 -0.0767889   
     length 3.29361  
     axis 0 0 0   XYZ 
    dof ry rz
    limits (-10.0 20.0)
           (-20.0 0.0)
  end
  begin
     id 25 
     name rhumerus
     direction -1 -4.48945e-011 8.0491e-028  
     length 4.71404   
     axis 180 30 90   XYZ
    dof rx ry rz
    limits (-90.0 60.0)
           (-90.0 90.0)
           (-90.0 90.0)
  end
  begin
     id 26 
     name rradius
     direction -1 -4.48986e-011 9.27795e-027   
     length 2.83468   
     axis 180 30 90   XYZ
    dof rx
    limits (-10.0 170.0)
  end
  begin
     id 27 
     name rwrist
     direction -1 -4.49029e-011 1.5064e-026   
     length 1.41734   
     axis -9.31234e-015 -90 -90   XYZ
    dof ry
    limits (-180.0 0.0)
  end
  begin
     id 28
     name rhand
     direction -1 -4.48857e-011 3.01165e-026   
     length 0.868195   
     axis -1.92217e-014 -90 -90   XYZ
    dof rx rz
    limits (-90.0 90.0)
           (-45.0 45.0)
  end
  begin
     id 29
     name rfingers
     direction -1 -4.49048e-011 6.02585e-026   
     length 0.699961   
     axis -3.84436e-014 -90 -90   XYZ
    dof rx
    limits (0.0 90.0)
  end
  begin
     id 30
     name rthumb
     direction -0.707107 -6.34854e-011 0.707107   
     length 1.00501   
     axis -90 -45 -2.19363e-014   XYZ
    dof rx rz
    limits (-45.0 45.0)
           (-45.0 45.0)
  end
:hierarchy
  begin
    root lhipjoint rhipjoint lowerback
    lhipjoint lfemur
    lfemur ltibia
    ltibia lfoot
    lfoot ltoes
    rhipjoint rfemur
    rfemur rtibia
    rtibia rfoot
    rfoot rtoes
    lowerback upperback
    upperback thorax
    thorax lowerneck lclavicle rclavicle
    lowerneck upperneck
    upperneck head
    lclavicle lhumerus
    lhumerus lradius
    lradius lwrist
    lwrist lhand lthumb
    lhand lfingers
    rclavicle rhumerus
    rhumerus rradius
    rradius rwrist
    rwrist rhand rthumb
    rhand rfingers
  end

#!OML:ASF H:\ManfredObstacles\Project 1\Capture day 2\Session 1\male.ASF
:FULLY-SPECIFIED
:DEGREES
84
root 1.63821 16.9448 0.299481 -165.93 0.271441 -181.106
lowerback -5.28084 5.35211 -3.29432
upperback -1.28907 7.5441 -3.4027
thorax 1.6546 3.82819 -1.16876
lowerneck -35.5351 -4.28129 -2.05654
upperneck 37.2845 -8.62077 3.51583
head 21.3323 -3.33716 -0.392098
rclavicle -4.80065e-014 6.75868e-015
rhumerus -47.6283 25.9869 -101.439
rradius 102.942
rwrist 8.08864
rhand -12.3721 1.5121
rfingers 7.12502
rthumb 13.6984 -28.0171
lclavicle -4.80065e-014 6.75868e-015
lhumerus -69.5221 -26.4912 95.6902
lradius 110.178
lwrist -19.3508
lhand -12.0296 2.57594
lfingers 7.12502
lthumb 14.0285 32.0825
rfemur 7.96878 2.89274 24.4786
rtibia 16.9872
rfoot 32.0076 -8.44165
rtoes -16.8937
lfemur -38.2093 -7.98916 -18.517
ltibia 30.688
lfoot 12.4479 10.618
ltoes -7.25529
85
root 1.63383 16.9585 -0.0420476 -165.804 0.184954 -181.086
lowerback -5.59225 5.37638 -3.31105
upperback -1.37117 7.59728 -3.41037
thorax 1.74191 3.85636 -1.1362
lowerneck -35.5777 -4.34918 -2.18846
upperneck 37.4407 -8.6899 3.52671
head 21.4614 -3.38091 -0.389276
rclavicle -6.92765e-014 -1.63003e-014
rhumerus -48.2334 25.8966 -101.534
rradius 103.053
rwrist 7.95985
rhand -12.1159 1.70137
rfingers 7.12502
rthumb 13.9453 -27.811
lclavicle -6.92765e-014 -1.63003e-014
lhumerus -69.5363 -26.6177 95.7684
lradius 110.342
lwrist -19.4231
lhand -12.0605 2.68574
lfingers 7.12502
lthumb 13.9987 32.1944
rfemur 7.96606 2.88362 24.4404
rtibia 18.2326
rfoot 33.4695 -8.99314
rtoes -15.1818
lfemur -37.7527 -8.32854 -18.4834
ltibia 28.1491
lfoot 12.8382 9.86548
ltoes -8.03703
86
root 1.62837 16.9575 -0.380907 -165.772 0.111758 -180.978
lowerback -5.81774 5.61134 -3.25528
upperback -1.40386 7.58809 -3.37668
thorax 1.82797 3.70634 -1.1175
lowerneck -35.6547 -4.39149 -2.28262
upperneck 37.601 -8.72018 3.49718
head 21.5953 -3.40957 -0.403305
rclavicle -1.23246e-014 -4.81059e-014
rhumerus -48.8225 25.6696 -101.59
rradius 103.085
rwrist 7.88797
rhand -11.9168 1.87701
rfingers 7.12502
rthumb 14.1372 -27.622
lclavicle -1.23246e-014 -4.81059e-014
lhumerus -69.4397 -26.7393 95.8782
lradius 110.463
lwrist -19.5473
lhand -12.1281 2.75189
lfingers 7.12502
lthumb 13.9335 32.265
rfemur 7.8302 2.8565 24.4962
rtibia 19.8976
rfoot 34.4431 -9.65618
rtoes -13.9894
lfemur -37.3041 -8.49882 -18.4759
ltibia 26.2704
lfoot 13.2915 9.24727
ltoes -8.67878
87
root 1.6221 16.9416 -0.716582 -165.843 0.0284838 -180.801
lowerback -5.92713 5.61681 -3.09707
upperback -1.41938 7.5941 -3.30438
thorax 1.8835 3.71127 -1.11805
lowerneck -35.7282 -4.4212 -2.36532
upperneck 37.741 -8.72828 3.45972
head 21.7128 -3.4298 -0.416629
rclavicle -4.97956e-014 -1.39149e-014
rhumerus -49.4123 25.2817 -101.607
rradius 103.038
rwrist 7.90352
rhand -11.7195 2.02555
rfingers 7.12502
rthumb 14.3273 -27.4601
lclavicle -4.97956e-014 -1.39149e-014
lhumerus -69.2528 -26.8579 96.0168
lradius 110.545
lwrist -19.7133
lhand -12.2316 2.78346
lfingers 7.12502
lthumb 13.8338 32.3034
rfemur 7.5837 2.79631 24.6281
rtibia 21.9505
rfoot 34.8381 -10.4008
rtoes -13.2291
lfemur -36.8686 -8.483 -18.5394
ltibia 25.0779
lfoot 13.7196 8.68561
ltoes -9.12039
88
root 1.61534 16.9098 -1.04888 -166.02 -0.0764823 -180.585
lowerback -5.92906 5.59045 -2.89161
upperback -1.3977 7.55417 -3.198
thorax 1.9193 3.69569 -1.12158
lowerneck -35.7483 -4.42313 -2.44436
upperneck 37.865 -8.70793 3.44383
head 21.8066 -3.43908 -0.410262
rclavicle -3.38928e-014 3.18055e-015
rhumerus -50.0053 24.7796 -101.591
rradius 102.902
rwrist 7.94016
rhand -11.6134 2.12979
rfingers 7.12502
rthumb 14.4295 -27.3486
lclavicle -3.38928e-014 3.18055e-015
lhumerus -68.9759 -26.9477 96.1799
lradius 110.588
lwrist -19.9179
lhand -12.3591 2.77993
lfingers 7.12502
lthumb 13.711 32.3082
rfemur 7.23789 2.68362 24.8015
rtibia 24.3588
rfoot 34.6479 -11.088
rtoes -12.891
lfemur -36.4182 -8.26837 -18.7204
ltibia 24.5251
lfoot 14.0903 8.06169
ltoes -9.406
89
root 1.60826 16.862 -1.37792 -166.293 -0.219914 -180.371
lowerback -5.8296 5.52567 -2.66678
upperback -1.34558 7.46026 -3.07982
thorax 1.9308 3.65465 -1.13615
lowerneck -35.7476 -4.39024 -2.46592
upperneck 37.9425 -8.64627 3.40633
head 21.8548 -3.42849 -0.411181
rclavicle 1.29906e-013 2.18663e-014
rhumerus -50.6093 24.174 -101.565
rradius 102.677
rwrist 7.95478
rhand -11.6288 2.14755
rfingers 7.12502
rthumb 14.4147 -27.3319
lclavicle 1.29906e-013 2.18663e-014
lhumerus -68.6215 -27.0268 96.3551
lradius 110.594
lwrist -20.1414
lhand -12.4745 2.78678
lfingers 7.12502
lthumb 13.5997 32.3226
rfemur 6.80224 2.49491 24.9683
rtibia 27.0725
rfoot 33.9564 -11.7012
rtoes -12.8086
lfemur -35.9158 -7.84104 -19.0695
ltibia 24.5159
lfoot 14.3658 7.29059
ltoes -8.95867
90
root 1.6008 16.7986 -1.70343 -166.653 -0.400106 -180.193
lowerback -5.64721 5.40944 -2.46656
upperback -1.25352 7.29884 -2.94905
thorax 1.93192 3.58062 -1.13549
lowerneck -35.7298 -4.32249 -2.46539
upperneck 37.9926 -8.54322 3.37923
head 21.8774 -3.39893 -0.39751
rclavicle 8.07066e-014 7.55382e-015
rhumerus -51.1964 23.514 -101.489
rradius 102.349
rwrist 8.00268
rhand -11.7049 2.10449
rfingers 7.12502
rthumb 14.3413 -27.3802
lclavicle 8.07066e-014 7.55382e-015
lhumerus -68.1769 -27.066 96.5467
lradius 110.55
lwrist -20.2992
lhand -12.6138 2.76368
lfingers 7.12502
lthumb 13.4655 32.3084
rfemur 6.2829 2.20964 25.0765
rtibia 30.0359
rfoot 32.8623 -12.2094
rtoes -12.8933
lfemur -35.3162 -7.26283 -19.5758
ltibia 24.941
lfoot 14.1928 6.50964
ltoes -8.53434
91
root 1.59285 16.7212 -2.02644 -167.082 -0.617903 -180.08
lowerback -5.40036 5.24791 -2.31768
upperback -1.12637 7.0793 -2.8231
thorax 1.92687 3.47735 -1.11995
lowerneck -35.6886 -4.22221 -2.42035
upperneck 38.0121 -8.40966 3.34868
head 21.8678 -3.35305 -0.383155
rclavicle 2.28602e-015 1.86858e-014
rhumerus -51.7648 22.7926 -101.364
rradius 101.918
rwrist 8.07559
rhand -11.8803 1.97906
rfingers 7.12502
rthumb 14.1724 -27.5175
lclavicle 2.28602e-015 1.86858e-014
lhumerus -67.6491 -27.0975 96.7606
lradius 110.458
lwrist -20.3806
lhand -12.7601 2.74473
lfingers 7.12502
lthumb 13.3245 32.2987
rfemur 5.69152 1.82022 25.0797
rtibia 33.1829
rfoot 31.471 -12.6602
rtoes -13.1199
lfemur -34.587 -6.6251 -20.2073
ltibia 25.7138
lfoot 13.6243 5.97104
ltoes -7.77023
92
root 1.58417 16.6319 -2.34652 -167.559 -0.873086 -180.045
lowerback -5.10697 5.03618 -2.23708
upperback -0.968422 6.79573 -2.70389
thorax 1.91968 3.34134 -1.08033
lowerneck -35.6334 -4.08978 -2.34557
upperneck 37.9994 -8.23908 3.32305
head 21.8291 -3.28881 -0.359571
rclavicle -1.24638e-013 1.82882e-014
rhumerus -52.3036 22.0433 -101.175
rradius 101.383
rwrist 8.17802
rhand -12.102 1.77897
rfingers 7.12502
rthumb 13.9587 -27.7324
lclavicle -1.24638e-013 1.82882e-014
lhumerus -67.0313 -27.1085 97.0024
lradius 110.304
lwrist -20.3259
lhand -12.9393 2.69855
lfingers 7.12502
lthumb 13.1517 32.2638
rfemur 5.03417 1.31928 24.951
rtibia 36.4503
rfoot 29.9024 -13.0719
rtoes -13.4548
lfemur -33.7271 -6.02422 -20.9082
ltibia 26.7686
lfoot 12.4836 5.8341
ltoes -6.91709
93
root 1.57496 16.534 -2.66399 -168.058 -1.14664 -180.089
lowerback -4.78117 4.78678 -2.23097
upperback -0.783944 6.46449 -2.60052
thorax 1.91511 3.18022 -1.0193
lowerneck -35.6001 -3.92488 -2.1976
upperneck 37.9464 -8.03588 3.26941
head 21.76 -3.20374 -0.352744
rclavicle 5.63555e-014 -3.61788e-014
rhumerus -52.7953 21.2356 -100.912
rradius 100.756
rwrist 8.33563
rhand -12.3277 1.52732
rfingers 7.12502
rthumb 13.7412 -27.9989
lclavicle 5.63555e-014 -3.61788e-014
lhumerus -66.2997 -27.1226 97.2621
lradius 110.082
lwrist -20.1494
lhand -13.1292 2.6618
lfingers 7.12502
lthumb 12.9687 32.2388
rfemur 4.30563 0.739428 24.6807
rtibia 39.7887
rfoot 28.2142 -13.505
rtoes -13.9144
lfemur -32.7472 -5.54893 -21.6232
ltibia 28.0472
lfoot 10.8368 6.275
ltoes -6.23704
94
root 1.56501 16.4302 -2.97949 -168.553 -1.42343 -180.22
lowerback -4.44011 4.51163 -2.3071
upperback -0.590397 6.10022 -2.52594
thorax 1.90648 3.00067 -0.94342
lowerneck -35.5701 -3.74944 -2.04436
upperneck 37.8947 -7.84222 3.25444
head 21.6976 -3.11568 -0.329929
rclavicle 2.15681e-014 3.1408e-014
rhumerus -53.2487 20.3488 -100.602
rradius 100.036
rwrist 8.5213
rhand -12.562 1.23584
rfingers 7.12502
rthumb 13.5154 -28.3056
lclavicle 2.15681e-014 3.1408e-014
lhumerus -65.463 -27.1524 97.5393
lradius 109.787
lwrist -19.8713
lhand -13.3048 2.62277
lfingers 7.12502
lthumb 12.7993 32.2104
rfemur 3.48918 0.106581 24.2556
rtibia 43.1639
rfoot 26.4949 -13.9357
rtoes -14.3789
lfemur -31.6878 -5.2942 -22.3164
ltibia 29.4842
lfoot 8.88841 7.37746
ltoes -5.71661
